<?xml version="1.0" encoding="UTF-8"?>
<svg id="Calque_1" data-name="Calque 1" xmlns="http://www.w3.org/2000/svg" viewBox="0 0 160 160">
  <defs>
    <style>
      .cls-1 {
        fill: #f4f1ed;
      }
    </style>
  </defs>
  <path class="cls-1" d="M60.8,87.02l-31.64-22.99c-.34-.25-.17-.79.26-.79h38.8c.19,0,.36-.12.41-.3l11.99-36.9c.13-.4.7-.4.83,0l11.99,36.9c.06.18.23.3.41.3h38.8c.42,0,.6.54.26.79l-31.37,22.79c-.16.12-.22.33-.15.51l17.99,46.45c.16.42-.35.78-.69.49l-37.37-32.31c-.16-.14-.41-.14-.57,0l-37.3,32.66c-.34.3-.86-.06-.69-.48l18.05-47.12"/>
</svg>