<?xml version="1.0" encoding="UTF-8"?>
<svg id="Calque_1" data-name="Calque 1" xmlns="http://www.w3.org/2000/svg" viewBox="0 0 1500.24 790.26">
  <defs>
    <style>
      .cls-1 {
        font-family: TTHazelnutsTrl-Medium, 'TT Hazelnuts Trl';
        font-size: 61px;
        font-weight: 500;
      }

      .cls-1, .cls-2 {
        fill: #ab2328;
      }

      .cls-2 {
        stroke: #ab2328;
        stroke-miterlimit: 10;
        stroke-width: 2px;
      }

      .cls-3 {
        letter-spacing: -.06em;
      }

      .cls-4 {
        letter-spacing: -.02em;
      }

      .cls-5 {
        letter-spacing: -.04em;
      }
    </style>
  </defs>
  <g>
    <path class="cls-2" d="M355.02,468c-4.44,16.98-13.46,30.93-31.67,34.47-11.91,2.32-23.51-2.01-30.95-11.68-5.05-6.57-8.32-14.02-10.51-22.18-3.25-12.14-5.13-24.24-6.09-36.88-2.59-34.01-3.62-83.19.15-116.84,2.79-24.88,12.72-57.44,43.41-56.63,17.96.47,28.62,12.23,34.72,28.02,3.48,9,5.47,18.09,6.59,27.77,3.91,33.8,2.85,84.53.17,118.7-.95,12.08-2.79,23.65-5.83,35.26ZM329.48,483.4c3.18-4.04,4.84-9,4.84-14.45v-179.02c0-9.35-4.9-20.69-14.9-21.14-4.55-.21-9.26,1.49-12,5.27-3.11,4.28-5.01,9.41-5.01,15.01v180.31c0,5.5,1.97,10.42,5.1,14.51,5.71,7.45,17.69,4.96,21.97-.48Z"/>
    <path class="cls-2" d="M1306.58,499.94h-28.39c-.48,0-1.45-.47-1.78-.76s-.31-1.47-.1-1.91l3.25-6.95c.8-1.71,1.34-3.2,1.68-5.22l-.02-120.65-29.39.03v120.61c.27,1.75.65,3.09,1.31,4.5l3.52,7.52c.19.4.28,1.33.16,1.72-.15.47-1.37,1.09-1.89,1.09h-28.61c-.55.01-1.88-.55-2-1.05-.47-2,4.22-9.41,4.98-12.63v-211.09c-.69-3.1-5.5-10.77-4.98-12.62.16-.57,1.58-1.13,2.26-1.13h27.74c.87,0,2.62.79,2.68,1.58-1.33,4.64-4.27,8.17-5.18,12.86v70.48s29.41,0,29.41,0v-70.9c-1.37-4.96-4.03-8.01-5.26-12.89.87-.64,2.13-1.16,3.18-1.16l27.03.03c.54,0,1.73.49,2.07.86,1.16,1.29-4.22,9.98-4.87,12.82v210.83c1.6,5.32,3.41,7.13,5.17,12.42.17.52-1.3,1.6-1.98,1.6Z"/>
    <path class="cls-2" d="M1088.76,499.65c-2.96-.62-3.27-2.46-3.91-4.82l-43.38-160.37-.12,151.63c.74,3.42,5.54,10.71,4.95,12.83-.15.53-1.4,1.02-2.09,1.02l-24.37-.02c-.48,0-1.35-.42-1.6-.7-.31-.35-.32-1.56-.12-2l3.28-7.06c.64-1.38,1.59-3.09,1.59-4.8v-210.36c-.47-2.81-5.97-11.91-4.77-12.85.36-.28,1.37-.72,1.85-.72l18.88-.07c1.84.15,3.33,1.21,3.87,3.2l35.52,130.21.06-116.33c0-3.34-.89-6.02-2.5-8.68l-2.43-5.72c-.18-.43-.19-1.5.11-1.81s1.31-.81,1.78-.81l23.5-.04c1.09,0,2.4.56,2.98,1.27l-3.83,8.8c-.73,1.68-1.23,3.6-1.23,5.75v221.8c-2.54,1.13-5.51,1.17-8.03.64Z"/>
    <path class="cls-2" d="M787.54,440.57c-.52,15.93-4.65,31.98-14.95,44.31-7.71,9.23-18.51,14.91-30.68,14.95l-29.15.09c-.47,0-1.46-.44-1.79-.74s-.34-1.52-.13-1.95l3.14-6.68c.61-1.3,1.73-3,1.73-4.67v-210.33c0-1.89-1.3-3.76-2-5.25l-2.86-6.13c-.21-.45-.22-1.66.11-1.96s1.34-.78,1.8-.78l28.53.06c21.9.05,36.83,16.87,42.7,36.78,3.63,12.31,4.39,24.98,2.9,37.75-2.48,16.03-10.56,34.5-23.7,44.68,6.65,5.18,11.47,11.68,15.32,19.12,6.57,12.7,9.79,26.37,9.01,40.74ZM763.28,346.38c.97-11.13,1.14-21.8.52-32.77-.9-15.67-5.81-38.75-25.5-38.2v96.97c16.4.63,23.65-10.72,24.99-26ZM763.27,414.87c-1.33-14.82-8.25-26.36-24.97-25.92v97.09c12.82.27,19.59-9.57,22.62-20.47,4.1-14.75,3.72-35.44,2.35-50.7Z"/>
    <path class="cls-2" d="M966.15,444.96l-33.81-.02-3.95,40.25c-.12,1.22.73,2.99,1.19,4.02l3.71,8.17c.2.45.2,1.43-.08,1.73s-1.28.83-1.85.83h-24.32c-.52,0-1.49-.43-1.83-.73s-.31-1.53-.1-2l4.71-10.45,23.73-212.53c.28-2.48-2.52-9.41-.47-11.37.63-.6,2.24-1.39,3.29-1.39h24.93c.99.01,2.47.79,3.1,1.32,2.25,1.9-.74,9.57-.06,14.42l29.52,209.7,4.66,10.31c.2.45.26,1.63-.07,1.94s-1.37.77-1.84.77l-28.02.02c-.74,0-2.63-.7-2.59-1.45.6-2.71,1.93-5.24,3.33-7.69.54-1.32,2.04-3.3,1.85-4.83l-5.01-41.03ZM963.98,426.74l-16.66-131.92-13.07,132.04,29.73-.13Z"/>
    <path class="cls-2" d="M1152.53,454.15c1.49,9.81,4.18,23.24,10.17,31,3.85,4.98,10.54,5.45,15.02.98,12-11.96,12.3-53.15,11.93-69.74h15.35c-.07,25.33.32,85.17-35.94,86.74-17.19.74-27.88-11.3-34.36-25.77-8.25-18.43-11.03-39.77-12.27-59.9-1.24-20.13-1.62-39.92-1.25-60.12.41-22.31,2.7-49.72,10.78-70.46,6.47-16.61,17.7-29.87,37.11-28.58,20.44,1.36,28.11,18.68,30.72,36.62,1.72,11.86,2.16,23.58,1.98,35.54-.03,1.99-1.91,3.7-3.81,3.71l-13.2.02c-2.45,0-4.93-.59-7.32-1.65,3.59-12.43,3.51-32.29,1.39-44.85-1.21-7.17-4.17-17.11-12.56-17.41-11.45-.41-15.03,23.31-16.14,31.97-1.48,11.61-2.19,22.88-2.46,34.66-.62,26.99-.24,53.65,1.23,80.62.68,12.44,1.77,24.36,3.62,36.62Z"/>
    <path class="cls-2" d="M1386.23,364.37c-1.09-1.05-2.46-2.15-3.85-2.15l-20.69.03v119.64s30.5,0,30.5,0c1.77,0,3.19-.91,4.45-2.05,1.25-1.79,4.17-2.85,5.95-2.13.61.25,1.13,1.79,1.13,2.41l-.1,16c-.01,2.34-1.78,3.83-4.09,3.83h-63.5c-.4,0-1.48-.55-1.74-.85-.32-.36-.21-1.4.02-1.91l4.77-10.47v-212.01s-4.73-10.41-4.73-10.41c-.23-.51-.39-1.59-.08-1.96s1.44-.92,2.01-.92h63.33c2.3,0,3.99,1.66,4,3.86l.11,15.65c0,.75-.39,2.44-1.08,2.72-1.91.77-4.51-.24-5.8-1.87-1.13-1.08-2.54-2.25-4.21-2.25h-30.96s0,66.79,0,66.79l20.33.03c1.57,0,3.02-.78,4.17-1.78,1.39-1.77,3.76-2.66,6.05-2.18.61.13,1.26,1.55,1.25,2.21l-.02,19.9c0,.6-.8,1.95-1.41,2.06-2.01.36-4.45-.46-5.85-2.19Z"/>
    <path class="cls-2" d="M138.63,364.47c-1.26-1.17-2.6-2.27-4.16-2.26l-20.51.05v119.62s30.27.03,30.27.03c1.91,0,3.52-.84,4.71-2.21,1.27-1.27,2.78-2.11,4.68-2.3,1.17-.12,2.34,1,2.33,2.22l-.08,16.61c0,2.18-1.72,3.72-3.94,3.72h-63.43c-.56,0-1.59-.46-1.9-.78s-.23-1.47-.04-1.9l4.82-10.69v-211.71s-4.85-10.81-4.85-10.81c-.18-.4-.23-1.5.07-1.81s1.33-.83,1.83-.83h63.23c2.59,0,4.25,1.68,4.26,4.2l.04,16.19c0,1.24-1.19,2.3-2.36,2.18-1.87-.19-3.35-1-4.65-2.29-.89-.96-2.36-2.15-3.85-2.15h-31.14s0,66.78,0,66.78l20.53.02c1.51,0,3.01-.92,4.05-1.89,1.47-1.61,3.44-2.44,5.8-2.13.65.09,1.43,1.48,1.43,2.25v19.46c0,.69-.54,2.14-1.08,2.36-1.62.66-4.73-.05-6.06-1.92Z"/>
    <path class="cls-2" d="M588.01,364.33c-1.1-1.03-2.44-2.12-3.83-2.11l-20.69.04v119.63s30.46.01,30.46.01c1.77,0,3.22-.88,4.49-2.02,1.2-1.69,3.62-2.7,5.68-2.34.6.11,1.4,1.5,1.4,2.1l-.08,16.54c-.01,2.06-1.61,3.75-3.81,3.75h-63.5c-.72,0-1.95-.49-2.1-1.02-.59-2.12,4.21-9.41,4.95-12.82v-211.09s-4.61-10.21-4.61-10.21c-.26-.57-.48-1.78-.35-2.32s1.4-1.08,2.11-1.08h63.22c2.58,0,4.09,1.82,4.1,4.22l.08,15.32c0,.73-.44,2.46-1.1,2.71-1.91.72-4.53-.25-5.78-1.92-1.16-1.09-2.61-2.21-4.3-2.21h-30.87s0,66.79,0,66.79l20.26.04c1.72,0,3.2-.84,4.47-1.97,1.26-1.76,4.16-2.53,6.02-1.9.55.19,1.07,1.53,1.07,2.16v19.51c0,.67-.6,2.16-1.27,2.35-1.92.54-4.62-.33-6.04-2.17Z"/>
    <path class="cls-2" d="M230.83,497.13c.21.46.32,1.73-.02,2.03s-1.34.78-1.79.78h-28.43c-.63,0-1.9-.49-2.05-1.02s.09-1.75.34-2.3l4.61-10.22v-206.84s-17.2-.04-17.2-.04c-1.63,0-3.11,1.13-4.28,2.2-1.2,1.7-3.87,2.62-5.74,1.98-.58-.2-1.18-1.71-1.17-2.3l.06-16.2c0-2.15,1.39-3.78,3.74-3.78h71.38c.91-.01,2.33.45,2.87.87.61.47,1.15,1.96,1.15,2.93l.03,16.06c0,.67-.48,2.17-1.03,2.38-1.91.74-4.53-.21-5.8-1.87-1.13-1.04-2.59-2.27-4.18-2.27l-17.34.07v205.9c0,1.6.94,3.27,1.5,4.48l3.32,7.17Z"/>
    <path class="cls-2" d="M882.82,479.41l-.04,16.42c0,2.35-1.54,4.11-4.01,4.11h-63.42c-.64,0-1.94-.56-2.05-1.06-.46-2.04,4.2-9.39,4.98-12.63v-211.09c-.7-3.1-5.5-10.77-4.98-12.63.16-.57,1.58-1.12,2.26-1.12l27.02-.03c1.11,0,2.74.47,3.41,1.32-.55,2.01-1.47,4.07-2.4,5.99-.84,2.11-2.45,4.28-2.77,6.78v206.38s30.25.05,30.25.05c1.95,0,3.46-.86,4.81-2.16,1.11-1.68,3.89-2.59,5.61-2.19.44.1,1.34,1.38,1.34,1.85Z"/>
    <path class="cls-2" d="M516.71,479.84l-.09,16.34c-.01,2.07-1.64,3.76-3.82,3.76h-63.5c-.71,0-1.95-.49-2.1-1.02-.58-2.13,4.22-9.4,4.95-12.82v-210.06c0-1.7-.96-3.42-1.6-4.79l-3.27-7.04c-.21-.46-.25-1.73.11-2.03s1.34-.75,1.87-.75l28.41.02c.48,0,1.49.51,1.8.83s.25,1.5,0,2.04l-3.3,7.13c-.58,1.25-1.5,2.88-1.5,4.5v205.92s30.45.06,30.45.06c1.77,0,3.25-.9,4.49-2.03,1.29-1.69,3.52-2.68,5.67-2.35.6.09,1.44,1.51,1.44,2.31Z"/>
    <path class="cls-2" d="M416.38,486.24c.64,2.82,5.71,11.18,4.97,12.64-.23.46-1.38,1.05-2.02,1.05h-28.25c-.75,0-1.8-.56-2.07-.85-.32-.35-.18-1.37.06-1.91l4.79-10.78v-211.35c-.74-2.97-5.47-10.77-4.99-12.46.15-.53,1.48-1.16,2.07-1.16h28.18c.52,0,1.74.51,2.11.87,1.27,1.24-4.29,10.08-4.83,12.88v211.07Z"/>
    <path class="cls-2" d="M112.29,244.91c-.62.84-2.59.6-3.32.22l16.71-30.06,8.54.04-21.93,29.8Z"/>
  </g>
  <text class="cls-1" transform="translate(391.22 613.57)"><tspan x="0" y="0">CAFÉ - BAR - RE</tspan><tspan class="cls-4" x="446.81" y="0">S</tspan><tspan class="cls-3" x="481.28" y="0">T</tspan><tspan class="cls-5" x="511.78" y="0">A</tspan><tspan x="548.68" y="0">URANT</tspan></text>
</svg>