<?xml version="1.0" encoding="UTF-8"?>
<svg id="Calque_2" data-name="Calque 2" xmlns="http://www.w3.org/2000/svg" viewBox="0 0 1489.41 444.87">
  <defs>
    <style>
      .cls-1 {
        stroke: #000;
        stroke-miterlimit: 10;
        stroke-width: 2px;
      }
    </style>
  </defs>
  <g id="Calque_1-2" data-name="Calque 1">
    <g>
      <path class="cls-1" d="M304.32,286.58c-5.01,19.18-15.2,34.93-35.75,38.92-13.45,2.62-26.54-2.27-34.95-13.19-5.71-7.42-9.4-15.83-11.87-25.04-3.67-13.71-5.79-27.37-6.87-41.64-2.92-38.4-4.09-93.92.17-131.93,3.15-28.09,14.36-64.85,49.02-63.94,20.28.54,32.32,13.81,39.2,31.63,3.93,10.16,6.17,20.43,7.44,31.35,4.42,38.17,3.22,95.44.2,134.02-1.07,13.64-3.15,26.7-6.58,39.82ZM275.49,303.98c3.59-4.56,5.46-10.16,5.46-16.32V85.53c0-10.55-5.53-23.36-16.82-23.87-5.14-.23-10.45,1.68-13.55,5.95-3.51,4.83-5.65,10.62-5.65,16.95v203.59c0,6.21,2.22,11.77,5.76,16.38,6.44,8.42,19.98,5.6,24.81-.54Z"/>
      <path class="cls-1" d="M1378.71,322.65h-32.05c-.54,0-1.64-.53-2.01-.85s-.35-1.66-.11-2.16l3.67-7.84c.9-1.93,1.51-3.61,1.89-5.89l-.02-136.23-33.19.03v136.17c.3,1.97.73,3.49,1.48,5.08l3.97,8.49c.21.45.32,1.5.18,1.94-.16.53-1.55,1.24-2.13,1.24h-32.3c-.62.01-2.12-.62-2.26-1.19-.53-2.26,4.76-10.63,5.62-14.26V68.86c-.78-3.5-6.21-12.16-5.62-14.25.18-.65,1.79-1.28,2.55-1.28h31.32c.98,0,2.95.9,3.03,1.79-1.5,5.24-4.82,9.23-5.85,14.52v79.58s33.2,0,33.2,0v-80.05c-1.55-5.6-4.55-9.04-5.93-14.55.98-.72,2.4-1.31,3.59-1.31l30.52.03c.61,0,1.95.55,2.34.98,1.31,1.46-4.77,11.27-5.5,14.48v238.04c1.81,6.01,3.85,8.05,5.83,14.02.19.58-1.47,1.8-2.23,1.8Z"/>
      <path class="cls-1" d="M1132.77,322.32c-3.35-.7-3.69-2.77-4.41-5.44l-48.97-181.07-.14,171.21c.84,3.86,6.25,12.09,5.59,14.49-.16.59-1.58,1.15-2.36,1.15l-27.52-.02c-.54,0-1.52-.48-1.81-.79-.35-.39-.36-1.76-.14-2.25l3.7-7.97c.72-1.56,1.8-3.49,1.8-5.42V68.68c-.53-3.18-6.74-13.45-5.38-14.51.41-.32,1.55-.81,2.09-.81l21.31-.08c2.07.17,3.76,1.37,4.37,3.61l40.11,147.02.07-131.34c0-3.77-1.01-6.79-2.82-9.8l-2.74-6.46c-.21-.48-.22-1.7.12-2.05s1.48-.91,2.01-.91l26.54-.05c1.23,0,2.71.63,3.36,1.44l-4.32,9.94c-.83,1.9-1.39,4.06-1.39,6.49v250.43c-2.86,1.28-6.22,1.32-9.07.72Z"/>
      <path class="cls-1" d="M792.67,255.62c-.59,17.98-5.25,36.1-16.88,50.03-8.7,10.42-20.9,16.83-34.64,16.88l-32.91.11c-.53,0-1.65-.5-2.02-.84s-.38-1.72-.15-2.2l3.55-7.54c.69-1.47,1.96-3.38,1.96-5.28V69.3c0-2.14-1.47-4.24-2.26-5.93l-3.23-6.92c-.24-.51-.25-1.87.13-2.21s1.52-.88,2.03-.88l32.21.07c24.73.05,41.59,19.05,48.22,41.52,4.1,13.9,4.96,28.2,3.27,42.62-2.8,18.1-11.92,38.95-26.76,50.45,7.51,5.85,12.95,13.19,17.3,21.59,7.42,14.34,11.05,29.78,10.17,46ZM765.28,149.27c1.1-12.57,1.29-24.61.58-37-1.01-17.69-6.56-43.75-28.8-43.13v109.48c18.51.72,26.7-12.11,28.21-29.35ZM765.26,226.6c-1.5-16.73-9.31-29.76-28.19-29.27v109.62c14.47.3,22.12-10.81,25.54-23.11,4.63-16.65,4.2-40.02,2.65-57.24Z"/>
      <path class="cls-1" d="M994.33,260.57l-38.18-.03-4.46,45.45c-.14,1.38.82,3.37,1.35,4.54l4.19,9.22c.23.5.22,1.62-.09,1.95s-1.45.94-2.08.94h-27.46c-.58,0-1.69-.49-2.07-.82s-.35-1.73-.12-2.26l5.31-11.8,26.79-239.96c.31-2.79-2.84-10.63-.53-12.84.71-.67,2.53-1.57,3.72-1.57h28.15c1.11.01,2.79.89,3.49,1.49,2.54,2.14-.84,10.81-.07,16.28l33.33,236.77,5.26,11.64c.23.51.29,1.84-.07,2.19s-1.55.87-2.08.87l-31.64.03c-.84,0-2.96-.8-2.93-1.63.68-3.06,2.18-5.91,3.76-8.68.61-1.49,2.3-3.73,2.09-5.45l-5.65-46.33ZM991.88,240l-18.81-148.95-14.76,149.09,33.57-.14Z"/>
      <path class="cls-1" d="M1204.77,270.95c1.68,11.07,4.72,26.25,11.49,35,4.34,5.62,11.9,6.15,16.96,1.1,13.55-13.51,13.89-60.01,13.46-78.74h17.33c-.08,28.6.36,96.17-40.58,97.94-19.41.84-31.47-12.76-38.79-29.1-9.32-20.8-12.46-44.9-13.86-67.63-1.4-22.73-1.83-45.07-1.41-67.88.46-25.19,3.05-56.14,12.18-79.55,7.31-18.75,19.98-33.73,41.9-32.27,23.08,1.54,31.74,21.09,34.68,41.35,1.95,13.39,2.44,26.62,2.24,40.13-.03,2.25-2.15,4.18-4.3,4.19l-14.9.02c-2.77,0-5.57-.67-8.27-1.87,4.05-14.04,3.96-36.46,1.57-50.63-1.36-8.09-4.71-19.32-14.18-19.65-12.93-.46-16.97,26.32-18.22,36.09-1.67,13.11-2.48,25.84-2.78,39.14-.7,30.48-.27,60.57,1.38,91.02.76,14.05,1.99,27.51,4.09,41.35Z"/>
      <path class="cls-1" d="M1468.64,169.58c-1.23-1.18-2.78-2.43-4.34-2.43l-23.36.03v135.08s34.44,0,34.44,0c2,0,3.61-1.02,5.02-2.31,1.42-2.02,4.7-3.22,6.72-2.41.69.28,1.28,2.02,1.28,2.72l-.11,18.06c-.02,2.64-2.01,4.32-4.61,4.32h-71.7c-.46,0-1.67-.62-1.97-.96-.36-.41-.24-1.58.02-2.16l5.38-11.83V68.34s-5.34-11.75-5.34-11.75c-.26-.57-.44-1.8-.09-2.21s1.62-1.04,2.27-1.04h71.51c2.6,0,4.5,1.88,4.52,4.36l.12,17.67c0,.84-.44,2.76-1.22,3.07-2.16.87-5.09-.27-6.55-2.11-1.27-1.22-2.87-2.54-4.75-2.54h-34.96s0,75.41,0,75.41l22.95.04c1.77,0,3.41-.88,4.71-2.01,1.57-1.99,4.25-3.01,6.83-2.46.68.14,1.42,1.75,1.42,2.5l-.02,22.47c0,.67-.91,2.2-1.59,2.32-2.27.41-5.02-.52-6.61-2.47Z"/>
      <path class="cls-1" d="M60,169.7c-1.43-1.33-2.93-2.56-4.7-2.55l-23.16.05v135.06s34.17.03,34.17.03c2.16,0,3.97-.95,5.32-2.49,1.43-1.44,3.14-2.38,5.28-2.6,1.32-.13,2.64,1.13,2.63,2.5l-.09,18.76c-.01,2.46-1.95,4.2-4.45,4.2H3.39c-.63,0-1.8-.52-2.15-.88s-.26-1.66-.04-2.15l5.45-12.07V68.51s-5.48-12.2-5.48-12.2c-.2-.45-.26-1.69.08-2.04s1.5-.93,2.07-.93h71.39c2.93,0,4.8,1.9,4.81,4.74l.04,18.28c0,1.4-1.35,2.59-2.67,2.46-2.11-.21-3.78-1.12-5.25-2.59-1.01-1.09-2.67-2.43-4.34-2.43h-35.16s0,75.41,0,75.41l23.18.02c1.7,0,3.4-1.04,4.57-2.14,1.66-1.82,3.88-2.75,6.55-2.41.74.1,1.61,1.67,1.61,2.54v21.98c0,.78-.61,2.41-1.22,2.66-1.83.75-5.34-.05-6.84-2.17Z"/>
      <path class="cls-1" d="M567.39,169.54c-1.24-1.16-2.76-2.39-4.32-2.39l-23.36.04v135.07s34.39.01,34.39.01c2,0,3.63-.99,5.07-2.28,1.36-1.9,4.09-3.05,6.41-2.64.68.12,1.59,1.69,1.58,2.38l-.09,18.67c-.01,2.33-1.82,4.24-4.3,4.24h-71.69c-.81,0-2.21-.55-2.37-1.15-.66-2.4,4.76-10.63,5.59-14.48V68.69s-5.2-11.53-5.2-11.53c-.29-.64-.54-2.01-.39-2.61s1.58-1.21,2.39-1.21h71.39c2.92,0,4.62,2.05,4.63,4.76l.09,17.3c0,.82-.49,2.78-1.24,3.06-2.16.82-5.12-.28-6.53-2.17-1.31-1.23-2.95-2.5-4.85-2.5l-34.86.02v75.39s22.88.05,22.88.05c1.95,0,3.61-.95,5.05-2.22,1.42-1.99,4.7-2.86,6.8-2.14.62.21,1.21,1.73,1.21,2.44v22.02c0,.75-.67,2.44-1.43,2.65-2.17.6-5.22-.37-6.82-2.45Z"/>
      <path class="cls-1" d="M164.09,319.48c.24.52.36,1.96-.02,2.29s-1.52.88-2.02.88h-32.1c-.71,0-2.14-.56-2.31-1.15s.1-1.98.38-2.59l5.21-11.54V73.83s-19.42-.05-19.42-.05c-1.85,0-3.52,1.27-4.84,2.48-1.35,1.92-4.37,2.96-6.48,2.24-.66-.23-1.33-1.93-1.33-2.6l.07-18.29c0-2.43,1.57-4.26,4.22-4.26h80.59c1.03-.01,2.63.51,3.24.98.69.53,1.3,2.22,1.3,3.31l.04,18.14c0,.76-.55,2.45-1.16,2.68-2.16.83-5.12-.24-6.54-2.11-1.28-1.17-2.92-2.56-4.72-2.56l-19.57.08v232.47c0,1.81,1.06,3.69,1.7,5.06l3.75,8.09Z"/>
      <path class="cls-1" d="M900.25,299.47l-.05,18.54c0,2.65-1.74,4.65-4.52,4.65h-71.61c-.72,0-2.19-.63-2.32-1.2-.52-2.3,4.74-10.6,5.62-14.26V68.86c-.79-3.5-6.21-12.16-5.62-14.26.18-.65,1.79-1.27,2.55-1.27l30.51-.03c1.25,0,3.09.53,3.85,1.5-.62,2.27-1.66,4.6-2.71,6.76-.95,2.38-2.76,4.84-3.13,7.66l-.02,233.02,34.17.05c2.2,0,3.9-.97,5.43-2.44,1.26-1.9,4.4-2.92,6.34-2.47.5.12,1.51,1.56,1.51,2.09Z"/>
      <path class="cls-1" d="M486.88,299.95l-.11,18.45c-.01,2.34-1.85,4.24-4.31,4.24h-71.7c-.81,0-2.21-.55-2.37-1.15-.66-2.41,4.77-10.61,5.58-14.47V69.85c0-1.92-1.09-3.86-1.81-5.41l-3.69-7.95c-.24-.52-.28-1.96.12-2.3s1.51-.85,2.11-.85l32.07.02c.54,0,1.68.57,2.04.93s.28,1.7,0,2.3l-3.73,8.05c-.65,1.41-1.69,3.26-1.69,5.08v232.5s34.38.06,34.38.06c2,0,3.67-1.02,5.07-2.29,1.46-1.9,3.97-3.03,6.41-2.66.67.1,1.63,1.7,1.62,2.61Z"/>
      <path class="cls-1" d="M373.59,307.18c.72,3.19,6.44,12.62,5.61,14.28-.26.52-1.55,1.18-2.28,1.18h-31.9c-.85,0-2.04-.64-2.34-.96-.37-.39-.2-1.54.07-2.16l5.41-12.18V68.72c-.83-3.35-6.17-12.16-5.63-14.07.17-.6,1.67-1.31,2.33-1.31h31.81c.58,0,1.97.58,2.38.98,1.43,1.4-4.85,11.38-5.46,14.55v238.32Z"/>
      <path class="cls-1" d="M30.25,34.69c-.69.94-2.92.68-3.75.24L45.37,1l9.64.04-24.76,33.65Z"/>
    </g>
    <g>
      <path d="M1222.04,415.9l-8.78-15.46-.06,36.96,7.49.09.02,6.47h-21.36s0-6.49,0-6.49l7.38-.04-.02-38.9-7.38-.06v-6.47c.26-.08.38-.07.56-.07h17.2s22.29,39.28,22.29,39.28c.31.54.57,1.44.57.69v-33.35s-7.43-.09-7.43-.09v-6.54s21.38,0,21.38,0l.05,5.99c0,.34-.18.59-.54.59h-6.51c-.19,0-.33.01-.45.06-.13.06-.12.25-.14.57v45.3s-8.14.08-8.14.08l-16.14-28.62Z"/>
      <polygon points="823.45 437.42 845.7 437.45 845.71 427.97 852.19 427.98 852.19 443.96 808.83 443.96 808.78 437.47 815.48 437.41 815.47 398.55 808.82 398.49 808.76 391.93 852.19 391.92 852.17 407.16 845.74 407.17 845.7 398.52 823.47 398.51 823.46 413.87 842.82 413.89 842.82 420.45 823.46 420.47 823.45 437.42"/>
      <polygon points="372.44 437.42 394.68 437.45 394.74 427.98 401.17 427.99 401.16 443.96 357.85 443.96 357.84 437.48 364.53 437.4 364.53 398.57 357.83 398.45 357.84 391.93 401.17 391.92 401.15 407.17 394.76 407.17 394.64 398.51 372.46 398.51 372.45 413.85 391.86 413.9 391.81 420.45 372.46 420.47 372.44 437.42"/>
      <path d="M1050.46,391.95l20.41-.03v6.54s-6.48.07-6.48.07l-.05,28.78c0,2.72-.55,5.18-1.49,7.65-1.74,4.53-5.41,7.77-10.16,9.02s-9.32,1.16-13.87-.01c-8.4-2.17-11.46-9.82-11.47-17.85l-.05-27.58-6.34-.03-.06-6.57h20.52s.06,6.51.06,6.51l-6.18.08.03,27.83c0,5.09,1.97,10.49,7.44,11.7,5.19,1.15,10.87-.42,12.72-5.91.67-1.97,1.02-3.94,1.02-6.08l.02-27.52-6.01-.06-.04-6.53Z"/>
      <path d="M193.65,428.28c2.1,3.75,5.14,6.54,9,8.11,6.94,2.82,14.73.81,19.67-4.7,2.27-2.53,3.68-5.41,4.77-8.68l6.67,3.51c-2.28,7.96-8.11,14.23-16.09,16.83-5.55,1.81-11.5,2.06-17.16.42-7.94-2.29-13.99-8.36-16.67-16.15-2.36-6.89-2.05-14.5.66-21.2,3.64-9,11.86-14.59,21.47-15.27,7.28-.52,14.07,1.52,19.56,6.43l.09-5.64,6.68.04v16.68s-6.87,0-6.87,0c-2.93-5.82-8.36-9.82-14.88-10.48-5.92-.6-11.39,1.63-15.09,6.3-5.32,6.72-6.09,16.19-1.82,23.81Z"/>
      <path d="M892.27,443.1c-6.66,3.24-15.51,1.94-21.18-3.3l-.13,4.13-6.48-.03v-18.87s6.43-.01,6.43-.01c.46,1.47-.28,3.12.24,4.54.71,1.92,2.14,3.54,3.55,4.98,3.1,3.17,7.45,4.23,11.71,3.2,3.44-.83,5.6-3.55,5.94-7.03.25-2.58-.54-4.97-2.69-6.54-1.19-.87-2.49-1.58-3.96-2.01l-8.93-2.57c-2.6-.75-4.96-1.84-7.16-3.36-2.72-1.87-4.56-4.56-5.1-7.85-1-6.17.92-12.95,6.99-15.66,6.43-2.88,13.89-2.01,19.6,2.35l.18-3.42h6.32s0,15.7,0,15.7l-6.3.06-.16-3.46c-3.2-5.57-10.03-7.46-15.91-5.34-2.63.95-3.99,3.31-3.93,6,.05,2.19,1.02,3.98,2.92,5.06,1.43.81,2.94,1.44,4.57,1.88l8.87,2.41c4.34,1.18,9.72,4.19,11.37,8.54,1.35,3.55,1.51,7.39.74,11.11-.88,4.24-3.64,7.61-7.5,9.49Z"/>
      <polygon points="943.81 443.97 922.51 443.95 922.5 437.5 929.14 437.43 929.16 398.52 918.59 398.51 918.52 410.96 912.01 410.98 912 391.93 954.28 391.92 954.29 410.95 947.77 410.99 947.73 398.52 937.08 398.52 937.08 437.4 943.83 437.47 943.81 443.97"/>
      <path d="M1296.69,443.94l-21.28.02-.04-6.46,6.64-.1v-38.9s-10.58,0-10.58,0l-.06,12.49h-6.44s-.02-19.07-.02-19.07h41.74c.46,0,.51.05.51.47l-.03,18.6h-6.44s-.03-12.46-.03-12.46h-10.72s0,38.87,0,38.87l6.76.1v6.44Z"/>
      <polygon points="322.13 420.4 322.11 437.41 328.7 437.5 328.66 443.95 307.64 443.95 307.65 437.46 314.12 437.43 314.14 398.57 307.63 398.45 307.65 391.93 348.08 391.92 348.07 407.16 341.64 407.15 341.59 398.51 322.11 398.52 322.13 413.81 338.94 413.84 338.95 420.4 322.13 420.4"/>
      <polygon points="462.01 429.53 439.58 429.55 439.54 422.38 461.98 422.37 462.01 429.53"/>
      <polygon points="717.86 429.53 695.42 429.55 695.39 422.39 717.83 422.37 717.86 429.53"/>
      <polygon points="382.47 388.79 377.48 388.79 382.81 376.86 393.21 376.9 382.47 388.79"/>
      <path d="M1125.28,437.44h-5.91s-9.17-18.7-9.17-18.7c5.51-1.49,9.86-5.14,10.56-11.01.73-6.06-1.15-11.86-7.31-14.11-3.14-1.15-6.36-1.63-9.8-1.64l-23.43-.05.04,6.56,7.03.05v38.9s-7.06.04-7.06.04l.03,6.49h21.56s0-6.5,0-6.5l-6.59-.05v-17.65s7.24.02,7.24.02l11.5,24.17h11.77s.02-6.11.02-6.11c-.02-.3-.18-.41-.47-.41ZM1104.28,413.13l-9.06.02v-14.61s9.39,0,9.39,0c1.58,0,3.07.34,4.49.89,1.85.76,3.09,2.28,3.44,4.26.57,3.17-.17,7.1-3.52,8.44-1.5.62-3.09,1-4.75,1Z"/>
      <path d="M658.8,437.48l-6.35-.11-9.12-18.65c8.6-2.24,12.21-9.17,10.2-17.49-.9-3.72-3.55-6.44-7.18-7.7-3.11-1.08-6.28-1.55-9.67-1.56l-23.29-.05v6.54s6.98.06,6.98.06v38.89s-6.98.06-6.98.06v6.48s21.55,0,21.55,0l-.02-6.47-6.57-.08v-17.63s7.19-.02,7.19-.02l11.6,24.26,11.66-.07v-6.45ZM637.36,413.13l-8.99.02v-14.59s9.52,0,9.52,0c1.55,0,3.02.35,4.4.9,1.72.72,2.92,2.1,3.33,3.94.74,3.31-.05,7.55-3.72,8.85-1.45.55-2.96.89-4.54.89Z"/>
      <path d="M793.44,437.4l-9.13-18.67c8.47-2.23,12.18-9,10.23-17.37-.87-3.74-3.47-6.51-7.11-7.8-3.1-1.1-6.25-1.58-9.64-1.59l-23.5-.06v6.55s7.06.06,7.06.06l.02,38.86-7.08.12v6.45s21.62,0,21.62,0v-6.48s-6.64-.09-6.64-.09l.03-17.63,7.24.02,11.54,24.2,11.68-.03.03-6.47-6.36-.08ZM769.29,413.13v-14.59s9.23-.01,9.23-.01c1.37,0,2.72.24,3.97.64,2.85.8,4.4,3.24,4.33,6.28-.06,2.3-.49,4.47-2.3,5.83-3.71,2.79-10.62,1.66-15.23,1.85Z"/>
      <path d="M529.96,416.12c6.35-3.16,7.4-10.49,5.27-16.3-2.36-6.08-10.24-7.83-16.12-7.84l-20.08-.05.04,6.56,6.36.03v38.89s-6.39.07-6.39.07l.03,6.5,20.27-.07c4.03-.01,7.84-.72,11.5-2.32,5.22-2.28,7.95-6.86,8.09-12.33.15-6-3.03-11.13-8.98-13.13ZM513.36,398.55l6.24-.02c1.75,0,3.42.41,4.95,1.08,2.55,1.13,3.87,3.43,3.83,6.31-.07,5.54-4.25,7.66-9.02,7.64l-6-.03v-14.98ZM529.72,433.36c-2.83,4.8-11.4,3.95-16.36,4.07v-17.3s6.24,0,6.24,0c2.14,0,4.16.34,6.16,1.04,5.36,1.68,6.27,8.28,3.97,12.19Z"/>
      <path d="M1189.56,437.51l-5.81-.09-14.06-39.1,6.21-.1v-6.29s-27.11,0-27.11,0v6.29s6.18.14,6.18.14l-14,39.09-6.26.04.03,6.49,20.69-.02-.02-6.46-6.55-.07,4.01-11.74h18.84s4.02,11.74,4.02,11.74l-6.76.06-.02,6.48,20.14.02c.41,0,.51-.25.5-.59l-.03-5.87ZM1154.93,419.5l7.42-21.31,7.27,21.27-14.7.04Z"/>
      <path d="M277.55,443.94h20.56s-.02-6.48-.02-6.48l-5.77-.07-14.06-39.08,6.21-.11v-6.28s-27.15,0-27.15,0v6.29s6.22.12,6.22.12l-14.01,39.1-6.29.04.03,6.49,20.69-.02-.02-6.46-6.51-.08,4-11.73,18.87.03,3.98,11.7-6.73.08-.02,6.46ZM263.51,419.49l7.41-21.29,7.28,21.26-14.69.03Z"/>
      <path d="M993.36,443.94h20.56s-.02-6.48-.02-6.48l-5.77-.06-14.06-39.08,6.18-.1v-6.29s-27.11,0-27.11,0l.06,6.33,6.15.06-13.98,39.07-6.31.09.03,6.48,20.69-.02-.02-6.46-6.52-.08,4-11.74,18.88.04,3.98,11.7-6.72.08-.02,6.46ZM979.31,419.49l7.41-21.29,7.28,21.27-14.69.03Z"/>
      <path d="M583.84,443.95h20.5s0-6.48,0-6.48l-5.77-.08-14.05-39.05,6.2-.13v-6.29s-27.12.01-27.12.01v6.26s6.2.13,6.2.13l-13.98,39.06-6.32.13.04,6.44,20.64.02.05-6.5-6.53-.08,4.01-11.72,18.87.02,3.99,11.7-6.7.07v6.49ZM569.76,419.49l7.43-21.33,7.25,21.28-14.68.04Z"/>
    </g>
  </g>
</svg>