<?xml version="1.0" encoding="UTF-8"?>
<svg id="Calque_1" xmlns="http://www.w3.org/2000/svg" version="1.1" viewBox="0 0 160 160">
  <!-- Generator: Adobe Illustrator 30.1.0, SVG Export Plug-In . SVG Version: 2.1.1 Build 136)  -->
  <defs>
    <style>
      .st0 {
        fill: #fff;
      }
    </style>
  </defs>
  <path d="M-119.2,87l-31.6-23c-.3-.2-.2-.8.3-.8h38.8c.2,0,.4-.1.4-.3l12-36.9c.1-.4.7-.4.8,0l12,36.9c0,.2.2.3.4.3h38.8c.4,0,.6.5.3.8l-31.4,22.8c-.2.1-.2.3-.2.5l18,46.4c.2.4-.3.8-.7.5l-37.4-32.3c-.2-.1-.4-.1-.6,0l-37.3,32.7c-.3.3-.9,0-.7-.5l18-47.1"/>
  <rect x="-1" width="161.2" height="160"/>
  <path class="st0" d="M60.8,87l-31.6-23c-.3-.2-.2-.8.3-.8h38.8c.2,0,.4-.1.4-.3l12-36.9c.1-.4.7-.4.8,0l12,36.9c0,.2.2.3.4.3h38.8c.4,0,.6.5.3.8l-31.4,22.8c-.2.1-.2.3-.2.5l18,46.4c.2.4-.3.8-.7.5l-37.4-32.3c-.2-.1-.4-.1-.6,0l-37.3,32.7c-.3.3-.9,0-.7-.5l18-47.1"/>
</svg>